<?xml version="1.0"?>
<svg version="1.1" xmlns="http://www.w3.org/2000/svg" xmlns:xlink="http://www.w3.org/1999/xlink" width="440" height="205">
    <desc iVinci="yes" version="4.6" gridStep="20" showGrid="yes" snapToGrid="no" codePlatform="0"/>
    <g id="Layer1" name="Layer 1" opacity="1">
        <g id="Shape1">
            <desc shapeID="1" type="0" basicInfo-basicType="0" basicInfo-roundedRectRadius="12" basicInfo-polygonSides="6" basicInfo-starPoints="5" bounding="rect(-65.253,-96.608,130.506,193.216)" text="" font-familyName="" font-pixelSize="20" font-bold="0" font-underline="0" font-alignment="1" strokeStyle="0" markerStart="0" markerEnd="0" shadowEnabled="0" shadowOffsetX="0" shadowOffsetY="2" shadowBlur="4" shadowOpacity="160" blurEnabled="0" blurRadius="4" transform="matrix(1,0,0,1,110.347,102.192)" pers-center="0,0" pers-size="0,0" pers-start="0,0" pers-end="0,0" locked="0" mesh="" flag=""/>
            <path id="shapePath1" d="M103.04,135.6 C85.89,133.5 71.94,126.2 61.2,113.8 C50.46,101.3 45.094,86.98 45.094,70.85 C45.094,52.91 51.47,37.55 64.21,24.76 C76.96,11.98 92.34,5.584 110.36,5.584 C128.22,5.584 143.6,12 156.4,24.82 C169.2,37.65 175.6,52.99 175.6,70.85 C175.6,86.98 170.2,101.3 159.5,113.8 C148.7,126.2 134.71,133.5 117.56,135.6 L117.56,160.1 L141.8,160.1 L141.8,174.6 L117.56,174.6 L117.56,198.8 L103.04,198.8 L103.04,174.6 L78.97,174.6 L78.97,160.1 L103.04,160.1 L103.04,135.6 M110.36,121.6 C124.29,121.6 136.23,116.6 146.2,106.7 C156.1,96.82 161.1,84.86 161.1,70.85 C161.1,56.85 156.2,44.89 146.2,34.97 C136.33,25.06 124.37,20.1 110.36,20.1 C96.36,20.1 84.4,25.08 74.48,35.03 C64.57,44.98 59.61,56.92 59.61,70.85 C59.61,84.86 64.57,96.82 74.48,106.7 C84.4,116.6 96.36,121.6 110.36,121.6 Z" style="stroke:#000000;stroke-opacity:1;stroke-width:5;stroke-linejoin:round;stroke-miterlimit:2;stroke-linecap:butt;fill-rule:evenodd;fill:#000000;fill-opacity:1;"/>
        </g>
        <g id="Shape2">
            <desc shapeID="2" type="0" basicInfo-basicType="0" basicInfo-roundedRectRadius="12" basicInfo-polygonSides="6" basicInfo-starPoints="5" bounding="rect(-78.7,-78.665,157.4,157.33)" text="" font-familyName="" font-pixelSize="20" font-bold="0" font-underline="0" font-alignment="1" strokeStyle="0" markerStart="0" markerEnd="0" shadowEnabled="0" shadowOffsetX="0" shadowOffsetY="2" shadowBlur="4" shadowOpacity="160" blurEnabled="0" blurRadius="4" transform="matrix(1,0,0,1,339,101.135)" pers-center="0,0" pers-size="0,0" pers-start="0,0" pers-end="0,0" locked="0" mesh="" flag=""/>
            <path id="shapePath2" d="M417.7,67.2 L403.2,67.2 L403.2,47.14 L376.6,73.69 C386.1,85.65 390.9,99.3 390.9,114.5 C390.9,132.5 384.5,147.8 371.7,160.6 C358.9,173.4 343.5,179.8 325.6,179.8 C307.7,179.8 292.3,173.4 279.5,160.6 C266.7,147.8 260.3,132.5 260.3,114.5 C260.3,96.67 266.7,81.34 279.5,68.56 C292.3,55.77 307.7,49.38 325.6,49.38 C340.9,49.38 354.5,54.1 366.4,63.54 L393,36.98 L372.9,36.98 L372.9,22.47 L417.7,22.47 L417.7,67.2 M325.6,165.4 C339.5,165.4 351.5,160.4 361.4,150.5 C371.4,140.5 376.4,128.5 376.4,114.5 C376.4,100.5 371.4,88.56 361.5,78.65 C351.6,68.73 339.6,63.78 325.6,63.78 C311.7,63.78 299.7,68.75 289.8,78.71 C279.8,88.66 274.9,100.6 274.9,114.5 C274.9,128.5 279.8,140.5 289.8,150.5 C299.7,160.4 311.7,165.4 325.6,165.4 Z" style="stroke:#000000;stroke-opacity:1;stroke-width:5;stroke-linejoin:round;stroke-miterlimit:2;stroke-linecap:butt;fill-rule:evenodd;fill:#000000;fill-opacity:1;"/>
        </g>
    </g>
</svg>
