<?xml version="1.0"?>
<svg version="1.1" xmlns="http://www.w3.org/2000/svg" xmlns:xlink="http://www.w3.org/1999/xlink" width="440" height="205">
    <desc iVinci="yes" version="4.6" gridStep="20" showGrid="yes" snapToGrid="no" codePlatform="0"/>
    <g id="Layer1" name="Layer 1" opacity="1">
        <g id="Shape1">
            <desc shapeID="1" type="0" basicInfo-basicType="0" basicInfo-roundedRectRadius="12" basicInfo-polygonSides="6" basicInfo-starPoints="5" bounding="rect(-65.253,-96.608,130.506,193.216)" text="" font-familyName="" font-pixelSize="20" font-bold="0" font-underline="0" font-alignment="1" strokeStyle="0" markerStart="0" markerEnd="0" shadowEnabled="0" shadowOffsetX="0" shadowOffsetY="2" shadowBlur="4" shadowOpacity="160" blurEnabled="0" blurRadius="4" transform="matrix(1,0,0,1,105.347,102.192)" pers-center="0,0" pers-size="0,0" pers-start="0,0" pers-end="0,0" locked="0" mesh="" flag=""/>
            <path id="shapePath1" d="M98.04,135.6 C80.89,133.5 66.94,126.2 56.2,113.8 C45.46,101.3 40.094,86.98 40.094,70.85 C40.094,52.91 46.47,37.55 59.21,24.76 C71.96,11.98 87.34,5.584 105.36,5.584 C123.22,5.584 138.6,12 151.4,24.82 C164.2,37.65 170.6,52.99 170.6,70.85 C170.6,86.98 165.2,101.3 154.5,113.8 C143.7,126.2 129.71,133.5 112.56,135.6 L112.56,160.1 L136.8,160.1 L136.8,174.6 L112.56,174.6 L112.56,198.8 L98.04,198.8 L98.04,174.6 L73.97,174.6 L73.97,160.1 L98.04,160.1 L98.04,135.6 M105.36,121.6 C119.29,121.6 131.23,116.6 141.2,106.7 C151.1,96.82 156.1,84.86 156.1,70.85 C156.1,56.85 151.2,44.89 141.2,34.97 C131.33,25.06 119.37,20.1 105.36,20.1 C91.36,20.1 79.4,25.08 69.48,35.03 C59.57,44.98 54.61,56.92 54.61,70.85 C54.61,84.86 59.57,96.82 69.48,106.7 C79.4,116.6 91.36,121.6 105.36,121.6 Z" style="stroke:#e67fff;stroke-opacity:1;stroke-width:1;stroke-linejoin:miter;stroke-miterlimit:2;stroke-linecap:butt;fill-rule:nonzero;fill:#e67fff;fill-opacity:1;"/>
        </g>
        <g id="Shape2">
            <desc shapeID="2" type="0" basicInfo-basicType="0" basicInfo-roundedRectRadius="12" basicInfo-polygonSides="6" basicInfo-starPoints="5" bounding="rect(-78.7,-78.665,157.4,157.33)" text="" font-familyName="" font-pixelSize="20" font-bold="0" font-underline="0" font-alignment="1" strokeStyle="0" markerStart="0" markerEnd="0" shadowEnabled="0" shadowOffsetX="0" shadowOffsetY="2" shadowBlur="4" shadowOpacity="160" blurEnabled="0" blurRadius="4" transform="matrix(1,0,0,1,342,100.135)" pers-center="0,0" pers-size="0,0" pers-start="0,0" pers-end="0,0" locked="0" mesh="" flag=""/>
            <path id="shapePath2" d="M420.7,66.2 L406.2,66.2 L406.2,46.14 L379.6,72.69 C389.1,84.65 393.9,98.3 393.9,113.5 C393.9,131.5 387.5,146.8 374.7,159.6 C361.9,172.4 346.5,178.8 328.6,178.8 C310.7,178.8 295.3,172.4 282.5,159.6 C269.7,146.8 263.3,131.5 263.3,113.5 C263.3,95.67 269.7,80.34 282.5,67.56 C295.3,54.77 310.7,48.38 328.6,48.38 C343.9,48.38 357.5,53.1 369.4,62.54 L396,35.98 L375.9,35.98 L375.9,21.47 L420.7,21.47 L420.7,66.2 M328.6,164.4 C342.5,164.4 354.5,159.4 364.4,149.5 C374.4,139.5 379.4,127.5 379.4,113.5 C379.4,99.5 374.4,87.56 364.5,77.65 C354.6,67.73 342.6,62.78 328.6,62.78 C314.7,62.78 302.7,67.75 292.8,77.71 C282.8,87.66 277.9,99.6 277.9,113.5 C277.9,127.5 282.8,139.5 292.8,149.5 C302.7,159.4 314.7,164.4 328.6,164.4 Z" style="stroke:#435ad4;stroke-opacity:1;stroke-width:1;stroke-linejoin:miter;stroke-miterlimit:2;stroke-linecap:butt;fill-rule:nonzero;fill:#435ad4;fill-opacity:1;"/>
        </g>
    </g>
</svg>
