<?xml version="1.0" encoding="utf-8"?>
<!-- Generated by IcoMoon.io -->
<!DOCTYPE svg PUBLIC "-//W3C//DTD SVG 1.1//EN" "http://www.w3.org/Graphics/SVG/1.1/DTD/svg11.dtd">
<svg version="1.1" xmlns="http://www.w3.org/2000/svg" xmlns:xlink="http://www.w3.org/1999/xlink" width="256" height="32" viewBox="0 0 256 32">
<svg id="icon-00" width="16" height="32" viewBox="0 0 16 32" x="0" y="0">
<path fill="#444444" d="M0 0h16v0.5h-16z"></path>
<path fill="#444444" d="M0 32h16v-0.5h-16z"></path>
<path fill="#444444" d="M0 0v32h0.5v-32z"></path>
<path fill="#444444" d="M16 0v32h-0.5v-32z"></path>
<path fill="#444444" d="M0 15.75h16v0.5h-16z"></path>
</svg>
<svg id="icon-01" width="16" height="32" viewBox="0 0 16 32" x="48" y="0">
<path fill="#444444" d="M0 0h16v0.5h-16z"></path>
<path fill="#444444" d="M0 32h16v-0.5h-16z"></path>
<path fill="#444444" d="M0 0v32h0.5v-32z"></path>
<path fill="#444444" d="M16 0v32h-0.5v-32z"></path>
<path fill="#444444" d="M0 15.75h16v0.5h-16z"></path>
<path fill="#444444" d="M0 16h16v16h-16z"></path>
</svg>
<svg id="icon-10" width="16" height="32" viewBox="0 0 16 32" x="96" y="0">
<path fill="#444444" d="M0 0h16v0.5h-16z"></path>
<path fill="#444444" d="M0 32h16v-0.5h-16z"></path>
<path fill="#444444" d="M0 0v32h0.5v-32z"></path>
<path fill="#444444" d="M16 0v32h-0.5v-32z"></path>
<path fill="#444444" d="M0 15.75h16v0.5h-16z"></path>
<path fill="#444444" d="M0 16h16v-16h-16z"></path>
</svg>
<svg id="icon-11" width="16" height="32" viewBox="0 0 16 32" x="144" y="0">
<path fill="#444444" d="M0 0h16v32h-16z"></path>
</svg>
<svg id="icon-null-null" width="16" height="32" viewBox="0 0 16 32" x="192" y="0">
<path fill="#444444" d="M10 8c0 1.105-0.895 2-2 2s-2-0.895-2-2c0-1.105 0.895-2 2-2s2 0.895 2 2z"></path>
<path fill="#444444" d="M10 24c0 1.105-0.895 2-2 2s-2-0.895-2-2c0-1.105 0.895-2 2-2s2 0.895 2 2z"></path>
</svg>
</svg>
